<?xml version="1.0" standalone="no"?>
<!DOCTYPE svg PUBLIC "-//W3C//DTD SVG 20010904//EN"
 "http://www.w3.org/TR/2001/REC-SVG-20010904/DTD/svg10.dtd">
<svg version="1.0" xmlns="http://www.w3.org/2000/svg"
 width="1024.000000pt" height="1024.000000pt" viewBox="0 0 1024.000000 1024.000000"
 preserveAspectRatio="xMidYMid meet">
<metadata>
Created by potrace 1.11, written by Peter Selinger 2001-2013
</metadata>
<g transform="translate(0.000000,1024.000000) scale(0.100000,-0.100000)"
fill="#000000" stroke="none">
<path d="M5084 9583 c-14 -24 -59 -104 -97 -173 -16 -30 -36 -62 -43 -71 -8
-8 -14 -18 -14 -22 0 -3 -28 -55 -63 -115 -35 -60 -67 -115 -70 -123 -4 -8
-11 -21 -17 -29 -36 -54 -178 -310 -172 -310 4 0 2 -4 -4 -8 -6 -4 -30 -41
-53 -82 -23 -41 -51 -91 -62 -110 -97 -167 -229 -400 -229 -404 0 -3 376 -6
835 -6 561 0 835 3 835 10 0 6 -11 28 -25 50 -14 22 -25 44 -25 49 0 5 -7 14
-15 21 -8 7 -12 16 -9 21 3 5 1 9 -3 9 -5 0 -19 19 -31 43 -29 55 -80 146
-100 177 -9 14 -17 27 -17 30 0 3 -17 33 -38 66 -20 34 -37 67 -37 73 0 6 -4
11 -9 11 -5 0 -11 8 -15 18 -7 21 -39 76 -56 97 -7 8 -9 15 -6 15 4 0 -7 20
-24 44 -16 25 -30 47 -30 50 0 5 -58 107 -89 156 -8 14 -16 27 -16 30 0 3 -17
33 -38 68 -20 35 -37 67 -37 72 0 4 -4 10 -8 12 -4 2 -32 46 -61 98 -29 52
-68 120 -85 151 -17 31 -38 66 -46 78 -14 21 -16 21 -26 4z"/>
<path d="M4266 7883 c-6 -6 5 -43 13 -43 3 0 13 -15 21 -32 7 -18 18 -37 22
-43 5 -5 66 -111 137 -235 175 -309 182 -321 199 -355 9 -16 18 -32 21 -35 3
-3 12 -16 19 -29 8 -13 22 -38 31 -55 10 -17 46 -80 81 -141 35 -60 68 -119
74 -130 116 -209 211 -364 217 -358 8 8 143 241 241 414 7 13 19 32 27 42 8 9
10 17 6 17 -4 0 -1 8 7 18 21 24 108 179 108 192 0 5 5 10 10 10 6 0 10 4 10
9 0 8 151 278 180 321 6 8 13 22 17 30 4 8 24 43 45 78 21 34 38 64 38 65 0 2
32 58 70 126 39 67 70 125 70 130 0 8 -1656 12 -1664 4z"/>
<path d="M3949 7598 c-52 -90 -99 -172 -105 -183 -5 -11 -54 -95 -107 -188
-53 -92 -97 -172 -97 -177 0 -6 -4 -10 -8 -10 -4 0 -13 -12 -19 -27 -13 -31
-55 -105 -64 -113 -3 -3 -12 -20 -20 -37 -8 -18 -17 -33 -21 -33 -5 0 -8 -5
-8 -11 0 -6 -20 -45 -45 -86 -25 -40 -45 -75 -45 -78 0 -3 -83 -148 -100 -175
-6 -8 -16 -26 -23 -40 -6 -14 -27 -49 -44 -79 -18 -30 -33 -58 -33 -62 0 -4
378 -7 839 -7 l839 0 -29 50 c-16 27 -29 53 -29 58 0 6 -4 10 -8 10 -4 0 -13
12 -19 28 -7 15 -25 50 -41 77 -16 28 -61 106 -100 175 -39 69 -75 130 -79
135 -4 6 -18 28 -30 50 -32 60 -50 93 -172 304 -61 106 -111 198 -111 202 0 5
-5 9 -12 9 -6 0 -8 3 -5 7 4 3 1 13 -7 22 -7 9 -27 41 -43 71 -59 107 -145
255 -152 263 -4 4 -50 -66 -102 -155z"/>
<path d="M6129 7731 c-8 -17 -16 -31 -20 -31 -3 0 -11 -16 -19 -35 -8 -19 -17
-35 -22 -35 -4 0 -8 -4 -8 -8 0 -5 -41 -80 -91 -168 -50 -87 -105 -184 -122
-214 -17 -30 -41 -72 -54 -92 -13 -21 -23 -39 -23 -42 0 -2 -17 -33 -39 -68
-21 -35 -50 -86 -65 -113 -15 -28 -31 -57 -36 -65 -43 -69 -90 -151 -90 -155
0 -3 -18 -35 -40 -71 -22 -36 -40 -68 -40 -70 0 -2 -18 -33 -40 -69 -22 -36
-40 -69 -40 -74 0 -5 -7 -14 -15 -21 -9 -7 -14 -15 -11 -17 2 -3 -7 -21 -20
-40 -13 -20 -24 -39 -24 -43 0 -8 1634 -12 1662 -4 14 4 9 18 -32 85 -27 44
-49 82 -50 84 0 3 -6 15 -14 28 -38 61 -86 149 -86 158 0 5 -4 9 -10 9 -5 0
-10 4 -10 9 0 5 -49 96 -110 201 -60 105 -110 195 -110 199 0 5 -3 11 -7 13
-5 2 -15 17 -24 33 -9 17 -36 64 -59 105 -24 41 -43 77 -43 80 1 3 -4 12 -11
20 -7 8 -64 105 -126 215 -62 110 -118 206 -125 213 -10 11 -15 8 -26 -17z"/>
<path d="M3210 6043 c0 -5 27 -55 60 -112 33 -57 60 -108 60 -113 0 -4 5 -8
10 -8 5 0 9 -3 8 -7 -1 -5 5 -19 14 -33 34 -53 248 -432 248 -440 0 -5 3 -10
8 -12 7 -3 45 -69 67 -115 5 -13 13 -23 18 -23 4 0 7 -4 7 -9 0 -9 53 -106 88
-161 9 -14 17 -27 17 -30 0 -4 46 -85 105 -185 10 -16 27 -46 37 -65 69 -124
86 -150 93 -143 11 12 200 342 200 349 0 3 8 18 19 32 10 15 29 47 43 72 14
25 35 61 47 80 11 19 24 42 28 50 3 8 17 32 30 53 13 20 20 37 16 37 -5 0 -3
4 3 8 8 6 72 113 206 351 12 20 29 50 39 66 11 17 22 37 26 45 4 8 26 48 50
88 24 41 43 75 43 78 0 2 15 27 34 56 18 29 36 63 40 76 l7 22 -835 0 c-460 0
-836 -3 -836 -7z"/>
<path d="M5312 6043 c2 -5 12 -26 22 -48 10 -22 22 -42 26 -45 4 -3 15 -21 25
-40 9 -19 24 -43 33 -52 8 -10 12 -18 9 -18 -6 0 55 -106 73 -127 5 -7 10 -15
10 -18 0 -5 107 -195 141 -250 10 -16 22 -37 26 -45 4 -8 19 -35 33 -61 15
-25 39 -67 55 -94 15 -27 62 -110 105 -185 86 -151 111 -194 148 -260 13 -25
28 -49 32 -55 9 -12 57 -97 77 -137 8 -16 16 -28 18 -28 2 0 17 21 32 48 15
26 31 50 36 53 5 3 7 8 5 10 -2 4 69 132 111 199 8 14 22 39 31 55 16 30 83
147 100 175 5 8 55 96 111 195 56 99 109 191 118 205 8 14 16 27 16 30 0 3 8
16 16 30 9 14 35 59 59 100 23 41 51 91 62 110 11 19 47 81 79 137 33 56 59
107 59 112 0 8 -257 11 -836 11 -460 0 -834 -3 -832 -7z"/>
<path d="M2972 5888 c-11 -18 -30 -51 -42 -73 -12 -22 -49 -85 -81 -141 -33
-55 -59 -106 -59 -112 0 -7 -3 -12 -8 -12 -4 0 -18 -21 -32 -47 -13 -27 -46
-83 -72 -125 -26 -43 -45 -78 -42 -78 3 0 -3 -12 -14 -27 -11 -16 -36 -59 -57
-98 -21 -38 -44 -77 -51 -86 -8 -8 -14 -18 -14 -21 0 -3 -23 -45 -51 -94 -29
-49 -64 -111 -79 -139 -15 -27 -69 -121 -119 -207 -50 -87 -91 -161 -91 -165
0 -4 376 -8 835 -8 459 0 835 3 835 6 0 7 -21 45 -56 104 -13 22 -29 52 -35
68 -6 15 -15 27 -20 27 -5 0 -9 9 -9 19 0 11 -4 21 -9 23 -7 3 -26 35 -85 143
-6 11 -13 22 -16 25 -5 5 -19 28 -55 95 -28 52 -92 166 -104 185 -57 95 -427
746 -429 756 -5 23 -19 16 -40 -18z"/>
<path d="M7184 5903 c-6 -10 -22 -38 -36 -63 -14 -25 -58 -101 -98 -170 -40
-69 -88 -154 -108 -190 -19 -36 -39 -66 -44 -68 -4 -2 -8 -8 -8 -14 0 -5 -37
-73 -82 -151 -45 -78 -95 -167 -111 -197 -17 -30 -38 -66 -49 -79 -10 -13 -18
-27 -18 -32 0 -4 -21 -43 -46 -86 -26 -43 -66 -112 -89 -153 -23 -41 -54 -97
-70 -125 -57 -100 -65 -115 -62 -116 1 -1 377 -2 835 -3 746 -1 832 1 832 14
0 9 -4 20 -9 26 -14 14 -111 186 -111 195 0 5 -4 9 -10 9 -5 0 -10 6 -10 14 0
7 -9 25 -20 38 -10 14 -17 28 -14 30 2 3 -2 11 -11 18 -8 7 -15 16 -15 21 0 5
-18 38 -40 74 -22 36 -40 70 -40 75 0 6 -4 10 -9 10 -5 0 -11 8 -14 18 -6 18
-46 91 -83 152 -12 19 -33 56 -47 81 -40 73 -52 94 -57 99 -3 3 -18 30 -34 60
-16 30 -34 58 -39 61 -5 3 -9 10 -9 15 0 5 -19 41 -41 79 -23 39 -42 72 -42
75 0 3 -8 16 -16 30 -40 64 -89 152 -89 161 0 5 -3 9 -7 9 -5 0 -19 23 -32 50
-14 28 -27 50 -31 50 -3 0 -10 -8 -16 -17z"/>
<path d="M2160 4202 c0 -5 16 -34 35 -66 19 -32 35 -60 35 -62 0 -2 16 -28 35
-58 19 -30 35 -58 35 -61 0 -3 24 -47 54 -98 56 -95 74 -127 136 -237 44 -79
65 -116 140 -245 32 -55 67 -116 77 -135 11 -19 43 -75 72 -124 28 -49 51 -90
51 -92 0 -2 13 -25 29 -51 56 -92 82 -138 88 -155 3 -10 9 -18 13 -18 4 0 11
-11 14 -25 4 -14 12 -25 19 -25 6 0 41 53 77 117 36 64 87 155 114 202 27 47
63 111 79 141 17 30 37 61 44 68 7 7 13 17 13 21 0 4 57 106 126 227 69 120
138 242 153 269 15 28 71 125 125 217 53 92 99 174 102 183 6 13 -81 15 -830
15 -460 0 -836 -4 -836 -8z"/>
<path d="M6360 4207 c0 -2 41 -74 90 -160 50 -86 90 -161 90 -166 0 -5 4 -11
8 -13 5 -1 24 -32 44 -68 19 -36 130 -231 247 -433 116 -203 211 -373 211
-378 0 -5 4 -9 9 -9 5 0 11 -8 14 -17 3 -10 20 -40 36 -68 17 -27 38 -67 47
-87 9 -21 20 -38 25 -38 5 0 9 -7 9 -16 0 -21 16 -10 33 24 7 15 23 44 35 65
12 20 31 53 42 72 11 19 29 51 40 70 11 19 30 52 41 73 12 20 38 66 59 102 38
65 61 107 108 190 14 25 58 101 97 170 40 69 82 141 93 160 11 19 44 78 74
130 30 52 59 104 66 115 6 11 35 63 65 115 30 52 64 112 76 133 l21 37 -840 0
c-462 0 -840 -2 -840 -3z"/>
<path d="M1934 4074 c-4 -10 -15 -30 -24 -44 -9 -14 -33 -55 -54 -92 -20 -37
-60 -107 -88 -155 -29 -49 -51 -91 -50 -95 1 -5 -2 -8 -8 -8 -5 0 -10 -5 -10
-10 0 -6 -17 -38 -37 -73 -21 -34 -45 -76 -53 -92 -8 -17 -18 -32 -21 -35 -3
-3 -25 -41 -50 -85 -24 -44 -48 -88 -54 -97 -11 -18 -34 -59 -56 -98 -13 -23
-227 -396 -291 -508 -15 -26 -27 -51 -28 -57 0 -11 1656 -13 1667 -2 3 4 -2
17 -10 31 -9 14 -25 40 -35 58 -11 18 -47 83 -82 143 -34 61 -74 130 -88 155
-14 25 -50 88 -80 140 -85 148 -93 162 -124 220 -17 30 -37 63 -46 73 -8 9
-12 17 -8 17 4 0 -2 12 -13 26 -12 15 -21 32 -21 40 0 7 -4 14 -9 16 -5 2 -20
26 -35 53 -14 28 -34 64 -44 80 -9 17 -37 65 -60 107 -24 43 -47 80 -53 83 -5
4 -7 11 -4 16 4 5 1 9 -4 9 -6 0 -11 4 -11 9 0 7 -96 179 -106 190 -2 2 -7 -5
-10 -15z"/>
<path d="M8239 4080 c-2 -8 -51 -97 -109 -198 -58 -100 -109 -190 -115 -200
-33 -58 -132 -230 -142 -247 -7 -11 -16 -27 -20 -35 -7 -15 -218 -385 -322
-564 -28 -49 -51 -90 -51 -92 0 -2 -16 -29 -35 -61 -19 -32 -35 -60 -35 -63 0
-6 1669 -5 1675 1 2 3 -9 25 -24 49 -15 25 -41 70 -58 100 -62 113 -86 155
-93 165 -4 6 -19 30 -32 55 -49 88 -80 142 -144 252 -35 61 -64 112 -64 114 0
2 -18 33 -40 69 -22 36 -40 67 -40 70 0 3 -18 34 -40 70 -22 36 -40 67 -40 69
0 3 -27 49 -59 104 -32 55 -72 124 -89 154 -102 185 -118 209 -123 188z"/>
<path d="M1148 2372 l-46 -3 57 -97 c31 -53 60 -104 64 -112 4 -8 17 -31 28
-50 12 -19 35 -60 51 -90 17 -30 34 -59 38 -65 9 -12 42 -69 83 -145 16 -30
37 -66 47 -80 9 -14 24 -41 34 -60 9 -19 30 -56 46 -82 15 -25 40 -68 55 -95
15 -26 42 -73 61 -104 19 -31 34 -59 34 -62 0 -3 34 -63 76 -133 42 -71 80
-138 85 -149 5 -11 22 -40 38 -65 16 -25 30 -51 30 -57 2 -26 20 -12 50 37 17
28 31 54 31 59 0 5 7 14 15 21 8 7 15 21 15 30 0 10 4 20 8 22 7 3 40 57 122
203 13 22 31 54 41 70 10 17 23 41 29 54 6 13 19 35 29 50 10 14 31 49 45 76
33 61 61 110 196 344 58 100 120 208 138 239 18 31 39 71 48 87 17 34 29 54
62 106 12 20 22 40 22 45 0 8 -1515 13 -1632 6z"/>
<path d="M5353 2372 c-24 -2 -43 -5 -43 -8 0 -2 18 -34 40 -70 22 -36 40 -68
40 -71 0 -3 9 -18 21 -34 11 -16 17 -29 12 -29 -4 0 -3 -4 2 -8 9 -6 94 -151
225 -382 44 -78 67 -117 109 -188 17 -29 31 -55 31 -57 0 -2 27 -49 60 -105
33 -56 60 -103 60 -106 0 -2 18 -33 40 -69 22 -36 40 -67 40 -70 0 -2 14 -28
31 -57 18 -29 41 -69 52 -88 50 -90 69 -120 76 -120 4 0 18 21 31 48 13 26 30
53 37 60 7 7 16 24 19 38 3 13 10 24 15 24 5 0 9 6 9 14 0 7 7 19 15 26 8 7
15 21 15 31 0 11 4 19 10 19 5 0 12 11 16 25 3 14 10 25 14 25 5 0 10 6 12 13
2 10 450 798 499 877 5 8 40 70 78 138 l69 122 -31 1 c-149 2 -1572 3 -1604 1z"/>
<path d="M7462 2372 l-53 -3 23 -42 c13 -23 25 -44 28 -47 6 -6 49 -84 64
-117 6 -13 14 -23 19 -23 4 0 7 -4 7 -9 0 -5 68 -127 150 -271 83 -144 150
-266 150 -271 0 -5 5 -9 10 -9 6 0 10 -4 10 -9 0 -9 53 -106 88 -161 9 -14 17
-27 17 -30 1 -7 58 -104 65 -110 3 -3 6 -12 8 -20 2 -8 9 -21 15 -28 16 -20
107 -184 107 -194 0 -4 3 -8 8 -8 4 0 15 -17 25 -38 21 -43 45 -77 51 -71 4 4
104 177 144 249 14 25 59 104 100 175 42 72 84 146 95 165 34 63 64 116 177
310 40 69 148 259 185 325 13 22 48 83 78 135 30 52 53 97 51 99 -4 4 -1546 7
-1622 3z"/>
<path d="M850 2178 c-22 -40 -45 -80 -51 -88 -5 -8 -12 -23 -15 -32 -4 -10
-10 -18 -15 -18 -5 0 -9 -5 -9 -10 0 -9 -112 -210 -179 -321 -12 -19 -24 -41
-28 -49 -4 -8 -26 -48 -50 -88 -24 -41 -43 -75 -43 -78 0 -2 -18 -33 -40 -69
-22 -36 -40 -67 -40 -69 0 -2 -18 -34 -40 -70 -22 -36 -40 -68 -40 -71 0 -4
-65 -117 -90 -155 -6 -8 -14 -24 -19 -36 -5 -11 -28 -51 -50 -88 -23 -36 -41
-70 -41 -74 0 -4 -9 -18 -20 -32 -11 -14 -20 -31 -20 -37 0 -10 174 -13 835
-13 459 0 835 3 835 6 0 4 -13 29 -30 56 -16 26 -30 53 -30 58 0 6 -4 10 -9
10 -5 0 -12 11 -15 24 -3 14 -12 31 -19 38 -6 7 -21 31 -33 53 -19 37 -34 62
-83 148 -10 17 -46 80 -80 138 -33 58 -61 111 -61 118 0 6 -4 11 -10 11 -5 0
-10 5 -10 11 0 6 -8 23 -18 37 -11 15 -33 52 -49 82 -17 30 -81 142 -142 249
-61 107 -111 198 -111 203 0 4 -4 8 -8 8 -4 0 -13 12 -19 28 -11 26 -47 89
-90 160 l-21 34 -42 -74z"/>
<path d="M5076 2217 c-11 -17 -26 -43 -34 -57 -51 -93 -118 -209 -133 -231
-10 -14 -16 -29 -12 -33 3 -3 1 -6 -5 -6 -6 0 -12 -6 -14 -13 -5 -21 -271
-482 -282 -489 -6 -4 -7 -8 -2 -8 5 0 1 -9 -9 -20 -10 -11 -14 -20 -9 -20 5 0
5 -4 -1 -8 -11 -8 -12 -10 -92 -152 -29 -52 -57 -102 -62 -110 -42 -66 -161
-283 -158 -286 2 -2 380 -3 840 -2 l836 3 -28 45 c-26 42 -44 74 -107 188 -15
26 -51 88 -80 139 -30 50 -54 96 -54 101 0 6 -4 12 -8 14 -5 2 -22 28 -38 58
-47 86 -85 152 -111 192 -12 21 -23 40 -23 43 0 2 -18 34 -40 70 -22 36 -40
67 -40 70 0 2 -14 28 -31 57 -38 63 -63 107 -97 168 -13 25 -28 50 -32 55 -4
6 -19 30 -32 55 -62 111 -119 210 -121 210 -1 0 -11 -15 -21 -33z"/>
<path d="M7115 2108 c-44 -77 -93 -164 -110 -193 -16 -29 -54 -95 -83 -146
-29 -52 -62 -110 -74 -129 -11 -19 -32 -55 -46 -80 -27 -48 -327 -575 -342
-600 -49 -82 -99 -174 -97 -177 2 -2 380 -2 839 -1 l836 3 -74 129 c-41 71
-74 133 -74 138 0 4 -4 8 -10 8 -5 0 -10 9 -10 19 0 11 -4 21 -8 23 -5 2 -22
28 -39 58 -61 108 -71 126 -108 190 -21 36 -51 90 -68 120 -16 30 -33 60 -37
65 -4 6 -20 33 -36 60 -42 76 -58 105 -93 163 -17 29 -31 54 -31 56 0 2 -17
33 -39 67 -21 35 -55 96 -76 134 -21 39 -45 81 -54 95 -9 14 -25 41 -36 62
-46 90 -41 93 -130 -64z"/>
<path d="M9252 2172 c-88 -161 -115 -207 -124 -213 -5 -3 -8 -8 -7 -10 3 -4
-36 -75 -83 -150 -15 -25 -28 -48 -28 -51 0 -3 -18 -36 -40 -72 -22 -36 -40
-70 -40 -76 0 -5 -3 -10 -8 -10 -4 0 -16 -20 -27 -45 -11 -25 -23 -45 -27 -45
-5 0 -8 -5 -8 -10 0 -6 -15 -35 -34 -65 -19 -29 -32 -56 -29 -59 4 -3 1 -6 -5
-6 -7 0 -12 -4 -12 -10 0 -5 -13 -31 -29 -58 -15 -26 -39 -68 -53 -93 -14 -24
-73 -127 -132 -229 l-106 -185 420 -3 c231 -1 609 -1 840 0 l420 3 -140 245
c-77 135 -145 252 -150 260 -6 8 -18 31 -28 50 -9 19 -20 37 -24 38 -5 2 -8 8
-8 13 0 5 -10 26 -23 47 -13 20 -37 62 -54 92 -16 30 -61 109 -100 175 -38 66
-72 127 -76 135 -4 8 -17 31 -29 50 -24 41 -58 100 -128 225 -28 50 -59 100
-68 112 -17 23 -17 23 -60 -55z"/>
</g>
</svg>
